<mxfile host="app.diagrams.net" modified="2021-10-12T17:08:02.361Z" agent="5.0 (Macintosh; Intel Mac OS X 10_15_7) AppleWebKit/605.1.15 (KHTML, like Gecko) Version/15.0 Safari/605.1.15" etag="L_FjDWwtHtVeAQRl_leX" version="15.5.2" type="github">
  <diagram id="31b32b95-0358-9bc7-6ba0-a27c054ed1a7" name="CePosto">
    <mxGraphModel dx="988" dy="-162" grid="1" gridSize="10" guides="1" tooltips="1" connect="1" arrows="1" fold="1" page="1" pageScale="1" pageWidth="1169" pageHeight="827" background="none" math="0" shadow="0">
      <root>
        <mxCell id="0" />
        <mxCell id="1" style="" parent="0" />
        <mxCell id="Nyn4XY5mQbgr6pFCzm3k-120" value="" style="rounded=0;whiteSpace=wrap;html=1;labelBackgroundColor=none;fillColor=#fff2cc;strokeColor=#d6b656;" parent="1" vertex="1">
          <mxGeometry x="235" y="1093.25" width="110" height="294.5" as="geometry" />
        </mxCell>
        <mxCell id="Nyn4XY5mQbgr6pFCzm3k-118" value="" style="rounded=0;whiteSpace=wrap;html=1;labelBackgroundColor=none;fillColor=#b1ddf0;strokeColor=#10739e;" parent="1" vertex="1">
          <mxGeometry x="505" y="985" width="430" height="511" as="geometry" />
        </mxCell>
        <mxCell id="Nyn4XY5mQbgr6pFCzm3k-117" value="" style="rounded=0;whiteSpace=wrap;html=1;fillColor=#d0cee2;strokeColor=#56517e;" parent="1" vertex="1">
          <mxGeometry x="345" y="1070" width="160" height="370" as="geometry" />
        </mxCell>
        <mxCell id="Nyn4XY5mQbgr6pFCzm3k-95" value="Smartphone" style="aspect=fixed;perimeter=ellipsePerimeter;html=1;align=center;shadow=0;dashed=0;image;image=img/lib/ibm/users/device.svg;labelBackgroundColor=none;strokeColor=#666666;strokeWidth=3;fillColor=#C2952D;gradientColor=none;fontSize=12;fontColor=#030303;labelBorderColor=none;" parent="1" vertex="1">
          <mxGeometry x="260" y="1136" width="60" height="60" as="geometry" />
        </mxCell>
        <mxCell id="Nyn4XY5mQbgr6pFCzm3k-96" value="Web browser" style="aspect=fixed;perimeter=ellipsePerimeter;align=center;shadow=0;dashed=0;fontColor=#030303;fontSize=12;spacingTop=3;image;image=img/lib/ibm/users/browser.svg;labelBorderColor=none;labelBackgroundColor=none;" parent="1" vertex="1">
          <mxGeometry x="260" y="1256" width="60" height="60" as="geometry" />
        </mxCell>
        <mxCell id="LBNev2fS4FXDowpOiX5T-1" value="Gateway" style="text;html=1;strokeColor=none;fillColor=none;align=center;verticalAlign=middle;whiteSpace=wrap;rounded=0;labelBackgroundColor=none;labelBorderColor=none;fontColor=#030303;" parent="1" vertex="1">
          <mxGeometry x="345" y="1070" width="60" height="30" as="geometry" />
        </mxCell>
        <mxCell id="LBNev2fS4FXDowpOiX5T-2" value="Backend" style="text;html=1;strokeColor=none;fillColor=none;align=center;verticalAlign=middle;whiteSpace=wrap;rounded=0;labelBackgroundColor=none;labelBorderColor=none;fontColor=#030303;" parent="1" vertex="1">
          <mxGeometry x="505" y="985" width="60" height="30" as="geometry" />
        </mxCell>
        <mxCell id="LBNev2fS4FXDowpOiX5T-3" value="Clients" style="text;html=1;strokeColor=none;fillColor=none;align=center;verticalAlign=middle;whiteSpace=wrap;rounded=0;labelBackgroundColor=none;labelBorderColor=none;fontColor=#030303;" parent="1" vertex="1">
          <mxGeometry x="235" y="1093.25" width="60" height="30" as="geometry" />
        </mxCell>
        <mxCell id="LBNev2fS4FXDowpOiX5T-9" value="Service-to-service" parent="0" />
        <mxCell id="Nyn4XY5mQbgr6pFCzm3k-124" style="edgeStyle=orthogonalEdgeStyle;rounded=0;orthogonalLoop=1;jettySize=auto;html=1;fontColor=#030303;startArrow=classic;startFill=1;strokeColor=#000000;entryX=0.25;entryY=0;entryDx=0;entryDy=0;" parent="LBNev2fS4FXDowpOiX5T-9" source="Nyn4XY5mQbgr6pFCzm3k-98" target="Nyn4XY5mQbgr6pFCzm3k-121" edge="1">
          <mxGeometry relative="1" as="geometry">
            <mxPoint x="810" y="1265" as="targetPoint" />
            <Array as="points">
              <mxPoint x="802" y="1235" />
            </Array>
          </mxGeometry>
        </mxCell>
        <mxCell id="Nyn4XY5mQbgr6pFCzm3k-112" style="edgeStyle=orthogonalEdgeStyle;rounded=0;orthogonalLoop=1;jettySize=auto;html=1;entryX=0;entryY=0.5;entryDx=0;entryDy=0;fontColor=#030303;strokeColor=#000000;" parent="LBNev2fS4FXDowpOiX5T-9" source="Nyn4XY5mQbgr6pFCzm3k-98" target="Nyn4XY5mQbgr6pFCzm3k-110" edge="1">
          <mxGeometry relative="1" as="geometry" />
        </mxCell>
        <mxCell id="Nyn4XY5mQbgr6pFCzm3k-111" style="edgeStyle=orthogonalEdgeStyle;rounded=0;orthogonalLoop=1;jettySize=auto;html=1;entryX=0;entryY=0.5;entryDx=0;entryDy=0;fontColor=#030303;strokeColor=#000000;" parent="LBNev2fS4FXDowpOiX5T-9" source="Nyn4XY5mQbgr6pFCzm3k-98" target="Nyn4XY5mQbgr6pFCzm3k-106" edge="1">
          <mxGeometry relative="1" as="geometry" />
        </mxCell>
        <mxCell id="Nyn4XY5mQbgr6pFCzm3k-105" value="" style="edgeStyle=orthogonalEdgeStyle;rounded=0;orthogonalLoop=1;jettySize=auto;html=1;endArrow=none;fontColor=#030303;strokeColor=#000000;" parent="LBNev2fS4FXDowpOiX5T-9" source="Nyn4XY5mQbgr6pFCzm3k-96" target="Nyn4XY5mQbgr6pFCzm3k-98" edge="1">
          <mxGeometry relative="1" as="geometry">
            <mxPoint x="455" y="1226" as="targetPoint" />
            <mxPoint x="255" y="1286" as="sourcePoint" />
            <Array as="points">
              <mxPoint x="330" y="1286" />
              <mxPoint x="330" y="1226" />
            </Array>
          </mxGeometry>
        </mxCell>
        <mxCell id="Nyn4XY5mQbgr6pFCzm3k-104" style="edgeStyle=orthogonalEdgeStyle;rounded=0;orthogonalLoop=1;jettySize=auto;html=1;entryX=1.05;entryY=0.017;entryDx=0;entryDy=0;entryPerimeter=0;fontColor=#030303;strokeColor=#000000;" parent="LBNev2fS4FXDowpOiX5T-9" source="Nyn4XY5mQbgr6pFCzm3k-98" target="Nyn4XY5mQbgr6pFCzm3k-95" edge="1">
          <mxGeometry relative="1" as="geometry">
            <Array as="points">
              <mxPoint x="380" y="1205" />
              <mxPoint x="380" y="1137" />
            </Array>
          </mxGeometry>
        </mxCell>
        <mxCell id="Nyn4XY5mQbgr6pFCzm3k-103" style="edgeStyle=orthogonalEdgeStyle;rounded=0;orthogonalLoop=1;jettySize=auto;html=1;entryX=1.033;entryY=0.967;entryDx=0;entryDy=0;entryPerimeter=0;fontColor=#030303;strokeColor=#000000;" parent="LBNev2fS4FXDowpOiX5T-9" source="Nyn4XY5mQbgr6pFCzm3k-98" target="Nyn4XY5mQbgr6pFCzm3k-96" edge="1">
          <mxGeometry relative="1" as="geometry">
            <Array as="points">
              <mxPoint x="380" y="1245" />
              <mxPoint x="380" y="1314" />
            </Array>
          </mxGeometry>
        </mxCell>
        <mxCell id="Nyn4XY5mQbgr6pFCzm3k-101" style="edgeStyle=orthogonalEdgeStyle;rounded=0;orthogonalLoop=1;jettySize=auto;html=1;entryX=0;entryY=0.5;entryDx=0;entryDy=0;fontColor=#030303;strokeColor=#000000;" parent="LBNev2fS4FXDowpOiX5T-9" source="Nyn4XY5mQbgr6pFCzm3k-95" target="Nyn4XY5mQbgr6pFCzm3k-98" edge="1">
          <mxGeometry relative="1" as="geometry">
            <Array as="points">
              <mxPoint x="330" y="1166" />
              <mxPoint x="330" y="1226" />
            </Array>
          </mxGeometry>
        </mxCell>
        <mxCell id="LBNev2fS4FXDowpOiX5T-7" value="Services" parent="0" />
        <mxCell id="Nyn4XY5mQbgr6pFCzm3k-110" value="Merchant_Service" style="aspect=fixed;perimeter=ellipsePerimeter;html=1;align=center;shadow=0;dashed=0;image;image=img/lib/ibm/infrastructure/edge_services.svg;labelBackgroundColor=none;strokeColor=#666666;strokeWidth=3;fillColor=#C2952D;gradientColor=none;fontSize=12;fontColor=#030303;" parent="LBNev2fS4FXDowpOiX5T-7" vertex="1">
          <mxGeometry x="625" y="1266" width="60" height="60" as="geometry" />
        </mxCell>
        <mxCell id="Nyn4XY5mQbgr6pFCzm3k-98" value="Auth_Service" style="aspect=fixed;perimeter=ellipsePerimeter;html=1;align=center;shadow=0;dashed=0;image;image=img/lib/ibm/infrastructure/edge_services.svg;labelBackgroundColor=none;strokeColor=#666666;strokeWidth=3;fillColor=#C2952D;gradientColor=none;fontSize=12;fontColor=#030303;" parent="LBNev2fS4FXDowpOiX5T-7" vertex="1">
          <mxGeometry x="430" y="1196" width="60" height="60" as="geometry" />
        </mxCell>
        <mxCell id="Nyn4XY5mQbgr6pFCzm3k-106" value="User_Service" style="aspect=fixed;perimeter=ellipsePerimeter;html=1;align=center;shadow=0;dashed=0;image;image=img/lib/ibm/infrastructure/edge_services.svg;labelBackgroundColor=none;strokeColor=#666666;strokeWidth=3;fillColor=#C2952D;gradientColor=none;fontSize=12;fontColor=#030303;" parent="LBNev2fS4FXDowpOiX5T-7" vertex="1">
          <mxGeometry x="625" y="1116" width="60" height="60" as="geometry" />
        </mxCell>
        <mxCell id="Nyn4XY5mQbgr6pFCzm3k-125" value="Audit_Service" style="aspect=fixed;perimeter=ellipsePerimeter;html=1;align=center;shadow=0;dashed=0;image;image=img/lib/ibm/infrastructure/edge_services.svg;labelBackgroundColor=none;strokeColor=#666666;strokeWidth=3;fillColor=#C2952D;gradientColor=none;fontSize=12;fontColor=#030303;" parent="LBNev2fS4FXDowpOiX5T-7" vertex="1">
          <mxGeometry x="785" y="1086" width="60" height="60" as="geometry" />
        </mxCell>
        <mxCell id="Nyn4XY5mQbgr6pFCzm3k-121" value="Prenotation_Service" style="aspect=fixed;perimeter=ellipsePerimeter;html=1;align=center;shadow=0;dashed=0;image;image=img/lib/ibm/infrastructure/edge_services.svg;labelBackgroundColor=none;strokeColor=#666666;strokeWidth=3;fillColor=#C2952D;gradientColor=none;fontSize=12;fontColor=#030303;" parent="LBNev2fS4FXDowpOiX5T-7" vertex="1">
          <mxGeometry x="785" y="1259" width="60" height="60" as="geometry" />
        </mxCell>
        <object label="Queues" id="LBNev2fS4FXDowpOiX5T-6">
          <mxCell parent="0" />
        </object>
        <mxCell id="BLFYgsMmtzmt7FxvZPBM-2" style="edgeStyle=orthogonalEdgeStyle;rounded=0;orthogonalLoop=1;jettySize=auto;html=1;dashed=1;dashPattern=1 2;labelBackgroundColor=none;fontColor=#FF0000;strokeColor=#FF0000;" parent="LBNev2fS4FXDowpOiX5T-6" source="Nyn4XY5mQbgr6pFCzm3k-98" target="Nyn4XY5mQbgr6pFCzm3k-125" edge="1">
          <mxGeometry relative="1" as="geometry">
            <Array as="points">
              <mxPoint x="460" y="1095" />
            </Array>
          </mxGeometry>
        </mxCell>
        <mxCell id="BLFYgsMmtzmt7FxvZPBM-3" value="log_queue" style="edgeLabel;html=1;align=center;verticalAlign=middle;resizable=0;points=[];labelBackgroundColor=none;fontColor=#FF0000;" parent="BLFYgsMmtzmt7FxvZPBM-2" vertex="1" connectable="0">
          <mxGeometry x="-0.0385" y="2" relative="1" as="geometry">
            <mxPoint x="-8" y="-7" as="offset" />
          </mxGeometry>
        </mxCell>
        <mxCell id="Nyn4XY5mQbgr6pFCzm3k-128" style="edgeStyle=orthogonalEdgeStyle;rounded=0;orthogonalLoop=1;jettySize=auto;html=1;entryX=0;entryY=0.5;entryDx=0;entryDy=0;dashed=1;fontColor=default;startArrow=none;startFill=0;strokeColor=#FF0000;dashPattern=1 2;" parent="LBNev2fS4FXDowpOiX5T-6" source="Nyn4XY5mQbgr6pFCzm3k-106" target="Nyn4XY5mQbgr6pFCzm3k-125" edge="1">
          <mxGeometry relative="1" as="geometry" />
        </mxCell>
        <mxCell id="Nyn4XY5mQbgr6pFCzm3k-132" value="log_queue" style="edgeLabel;html=1;align=center;verticalAlign=middle;resizable=0;points=[];fontColor=#FF0000;labelBackgroundColor=none;" parent="Nyn4XY5mQbgr6pFCzm3k-128" vertex="1" connectable="0">
          <mxGeometry x="0.3538" y="1" relative="1" as="geometry">
            <mxPoint x="2" y="-9" as="offset" />
          </mxGeometry>
        </mxCell>
        <mxCell id="Nyn4XY5mQbgr6pFCzm3k-131" style="edgeStyle=orthogonalEdgeStyle;rounded=0;orthogonalLoop=1;jettySize=auto;html=1;dashed=1;dashPattern=1 2;fontColor=default;startArrow=none;startFill=0;strokeColor=#FF0000;" parent="LBNev2fS4FXDowpOiX5T-6" source="Nyn4XY5mQbgr6pFCzm3k-110" target="Nyn4XY5mQbgr6pFCzm3k-125" edge="1">
          <mxGeometry relative="1" as="geometry">
            <Array as="points">
              <mxPoint x="725" y="1276" />
              <mxPoint x="725" y="1186" />
              <mxPoint x="755" y="1186" />
              <mxPoint x="755" y="1136" />
            </Array>
          </mxGeometry>
        </mxCell>
        <mxCell id="Nyn4XY5mQbgr6pFCzm3k-133" value="log_queue" style="edgeLabel;html=1;align=center;verticalAlign=middle;resizable=0;points=[];fontColor=#FF0000;labelBackgroundColor=none;" parent="Nyn4XY5mQbgr6pFCzm3k-131" vertex="1" connectable="0">
          <mxGeometry x="0.2899" y="-4" relative="1" as="geometry">
            <mxPoint y="6" as="offset" />
          </mxGeometry>
        </mxCell>
        <mxCell id="Nyn4XY5mQbgr6pFCzm3k-129" style="edgeStyle=orthogonalEdgeStyle;rounded=0;orthogonalLoop=1;jettySize=auto;html=1;dashed=1;dashPattern=1 2;fontColor=default;startArrow=none;startFill=0;strokeColor=#FF0000;" parent="LBNev2fS4FXDowpOiX5T-6" source="Nyn4XY5mQbgr6pFCzm3k-121" target="Nyn4XY5mQbgr6pFCzm3k-125" edge="1">
          <mxGeometry relative="1" as="geometry" />
        </mxCell>
        <mxCell id="Nyn4XY5mQbgr6pFCzm3k-135" value="log_queue" style="edgeLabel;html=1;align=center;verticalAlign=middle;resizable=0;points=[];fontColor=#FF0000;labelBackgroundColor=none;" parent="Nyn4XY5mQbgr6pFCzm3k-129" vertex="1" connectable="0">
          <mxGeometry x="-0.16" relative="1" as="geometry">
            <mxPoint x="30" y="-7" as="offset" />
          </mxGeometry>
        </mxCell>
        <mxCell id="Q55Xmf3In3upjL5qSI5Y-5" style="edgeStyle=orthogonalEdgeStyle;rounded=0;orthogonalLoop=1;jettySize=auto;html=1;entryX=0.75;entryY=1;entryDx=0;entryDy=0;dashed=1;dashPattern=1 1;labelBackgroundColor=none;fontColor=#19731C;strokeColor=#19731C;" parent="LBNev2fS4FXDowpOiX5T-6" source="Nyn4XY5mQbgr6pFCzm3k-121" target="Nyn4XY5mQbgr6pFCzm3k-106" edge="1">
          <mxGeometry relative="1" as="geometry">
            <Array as="points">
              <mxPoint x="815" y="1240" />
              <mxPoint x="668" y="1240" />
            </Array>
          </mxGeometry>
        </mxCell>
        <mxCell id="Q55Xmf3In3upjL5qSI5Y-6" value="prenotation_queue" style="edgeLabel;html=1;align=center;verticalAlign=middle;resizable=0;points=[];fontColor=#19731C;labelBackgroundColor=none;" parent="Q55Xmf3In3upjL5qSI5Y-5" vertex="1" connectable="0">
          <mxGeometry x="-0.3582" y="2" relative="1" as="geometry">
            <mxPoint x="-20" y="8" as="offset" />
          </mxGeometry>
        </mxCell>
        <mxCell id="Q55Xmf3In3upjL5qSI5Y-3" style="edgeStyle=orthogonalEdgeStyle;rounded=0;orthogonalLoop=1;jettySize=auto;html=1;entryX=1;entryY=0.5;entryDx=0;entryDy=0;dashed=1;dashPattern=1 1;labelBackgroundColor=none;fontColor=#19731C;strokeColor=#19731C;" parent="LBNev2fS4FXDowpOiX5T-6" source="Nyn4XY5mQbgr6pFCzm3k-121" target="Nyn4XY5mQbgr6pFCzm3k-110" edge="1">
          <mxGeometry relative="1" as="geometry">
            <Array as="points">
              <mxPoint x="760" y="1296" />
              <mxPoint x="760" y="1296" />
            </Array>
          </mxGeometry>
        </mxCell>
        <mxCell id="Q55Xmf3In3upjL5qSI5Y-4" value="prenotation_queue" style="edgeLabel;html=1;align=center;verticalAlign=middle;resizable=0;points=[];fontColor=#19731C;labelBackgroundColor=none;" parent="Q55Xmf3In3upjL5qSI5Y-3" vertex="1" connectable="0">
          <mxGeometry x="-0.1505" y="2" relative="1" as="geometry">
            <mxPoint x="-3" y="2" as="offset" />
          </mxGeometry>
        </mxCell>
        <mxCell id="Q55Xmf3In3upjL5qSI5Y-7" style="edgeStyle=orthogonalEdgeStyle;rounded=0;orthogonalLoop=1;jettySize=auto;html=1;exitX=0.5;exitY=0;exitDx=0;exitDy=0;dashed=1;dashPattern=1 1;labelBackgroundColor=none;fontColor=#19731C;strokeColor=#19731C;" parent="LBNev2fS4FXDowpOiX5T-6" source="Nyn4XY5mQbgr6pFCzm3k-110" target="Nyn4XY5mQbgr6pFCzm3k-106" edge="1">
          <mxGeometry relative="1" as="geometry" />
        </mxCell>
        <mxCell id="Q55Xmf3In3upjL5qSI5Y-8" value="prenotation_queue" style="edgeLabel;html=1;align=center;verticalAlign=middle;resizable=0;points=[];fontColor=#19731C;labelBackgroundColor=none;" parent="LBNev2fS4FXDowpOiX5T-6" vertex="1" connectable="0">
          <mxGeometry x="610" y="1220" as="geometry" />
        </mxCell>
        <mxCell id="LBNev2fS4FXDowpOiX5T-8" value="Databases" parent="0" />
        <mxCell id="Nyn4XY5mQbgr6pFCzm3k-126" value="AUDITS_DB" style="aspect=fixed;perimeter=ellipsePerimeter;html=1;align=center;shadow=0;dashed=0;image;image=img/lib/ibm/data/enterprise_data.svg;labelBackgroundColor=none;strokeColor=#666666;strokeWidth=3;fillColor=#C2952D;gradientColor=none;fontSize=12;fontColor=#030303;" parent="LBNev2fS4FXDowpOiX5T-8" vertex="1">
          <mxGeometry x="785" y="985" width="60" height="60" as="geometry" />
        </mxCell>
        <mxCell id="Nyn4XY5mQbgr6pFCzm3k-115" value="USERS_DB" style="aspect=fixed;perimeter=ellipsePerimeter;html=1;align=center;shadow=0;dashed=0;image;image=img/lib/ibm/data/enterprise_data.svg;labelBackgroundColor=none;strokeColor=#666666;strokeWidth=3;fillColor=#C2952D;gradientColor=none;fontSize=12;fontColor=#030303;" parent="LBNev2fS4FXDowpOiX5T-8" vertex="1">
          <mxGeometry x="625" y="1016" width="60" height="60" as="geometry" />
        </mxCell>
        <mxCell id="Nyn4XY5mQbgr6pFCzm3k-107" value="AUTH_DB" style="aspect=fixed;perimeter=ellipsePerimeter;html=1;align=center;shadow=0;dashed=0;image;image=img/lib/ibm/data/enterprise_data.svg;labelBackgroundColor=none;strokeColor=#666666;strokeWidth=3;fillColor=#C2952D;gradientColor=none;fontSize=12;fontColor=#030303;" parent="LBNev2fS4FXDowpOiX5T-8" vertex="1">
          <mxGeometry x="395" y="1356" width="60" height="60" as="geometry" />
        </mxCell>
        <mxCell id="Nyn4XY5mQbgr6pFCzm3k-113" value="MERCHANTS_DB" style="aspect=fixed;perimeter=ellipsePerimeter;html=1;align=center;shadow=0;dashed=0;image;image=img/lib/ibm/data/enterprise_data.svg;labelBackgroundColor=none;strokeColor=#666666;strokeWidth=3;fillColor=#C2952D;gradientColor=none;fontSize=12;fontColor=#030303;" parent="LBNev2fS4FXDowpOiX5T-8" vertex="1">
          <mxGeometry x="625" y="1380" width="60" height="60" as="geometry" />
        </mxCell>
        <mxCell id="Nyn4XY5mQbgr6pFCzm3k-122" value="PRENOTATIONS_DB" style="aspect=fixed;perimeter=ellipsePerimeter;html=1;align=center;shadow=0;dashed=0;image;image=img/lib/ibm/data/enterprise_data.svg;labelBackgroundColor=none;strokeColor=#666666;strokeWidth=3;fillColor=#C2952D;gradientColor=none;fontSize=12;fontColor=#030303;" parent="LBNev2fS4FXDowpOiX5T-8" vertex="1">
          <mxGeometry x="785" y="1366" width="60" height="60" as="geometry" />
        </mxCell>
        <mxCell id="Nyn4XY5mQbgr6pFCzm3k-123" style="edgeStyle=orthogonalEdgeStyle;rounded=0;orthogonalLoop=1;jettySize=auto;html=1;dashed=1;fontColor=default;startArrow=classic;startFill=1;strokeColor=#000000;" parent="LBNev2fS4FXDowpOiX5T-8" source="Nyn4XY5mQbgr6pFCzm3k-121" target="Nyn4XY5mQbgr6pFCzm3k-122" edge="1">
          <mxGeometry relative="1" as="geometry">
            <Array as="points">
              <mxPoint x="885" y="1289" />
              <mxPoint x="885" y="1396" />
            </Array>
          </mxGeometry>
        </mxCell>
        <mxCell id="Nyn4XY5mQbgr6pFCzm3k-114" style="edgeStyle=orthogonalEdgeStyle;rounded=0;orthogonalLoop=1;jettySize=auto;html=1;entryX=1;entryY=0.5;entryDx=0;entryDy=0;dashed=1;startArrow=classic;startFill=1;strokeColor=#000000;" parent="LBNev2fS4FXDowpOiX5T-8" source="Nyn4XY5mQbgr6pFCzm3k-110" target="Nyn4XY5mQbgr6pFCzm3k-113" edge="1">
          <mxGeometry relative="1" as="geometry">
            <Array as="points">
              <mxPoint x="715" y="1310" />
              <mxPoint x="715" y="1410" />
            </Array>
          </mxGeometry>
        </mxCell>
        <mxCell id="Nyn4XY5mQbgr6pFCzm3k-108" style="edgeStyle=orthogonalEdgeStyle;rounded=0;orthogonalLoop=1;jettySize=auto;html=1;dashed=1;startArrow=classic;startFill=1;fontColor=#030303;strokeColor=#000000;" parent="LBNev2fS4FXDowpOiX5T-8" source="Nyn4XY5mQbgr6pFCzm3k-98" target="Nyn4XY5mQbgr6pFCzm3k-107" edge="1">
          <mxGeometry relative="1" as="geometry">
            <Array as="points">
              <mxPoint x="410" y="1255" />
            </Array>
          </mxGeometry>
        </mxCell>
        <mxCell id="Nyn4XY5mQbgr6pFCzm3k-116" style="edgeStyle=orthogonalEdgeStyle;rounded=0;orthogonalLoop=1;jettySize=auto;html=1;dashed=1;strokeColor=#000000;startArrow=classic;startFill=1;" parent="LBNev2fS4FXDowpOiX5T-8" source="Nyn4XY5mQbgr6pFCzm3k-106" target="Nyn4XY5mQbgr6pFCzm3k-115" edge="1">
          <mxGeometry relative="1" as="geometry">
            <Array as="points">
              <mxPoint x="715" y="1125" />
              <mxPoint x="715" y="1036" />
            </Array>
          </mxGeometry>
        </mxCell>
        <mxCell id="Nyn4XY5mQbgr6pFCzm3k-127" style="edgeStyle=orthogonalEdgeStyle;rounded=0;orthogonalLoop=1;jettySize=auto;html=1;entryX=1;entryY=0.5;entryDx=0;entryDy=0;fontColor=default;startArrow=classic;startFill=1;strokeColor=#000000;dashed=1;" parent="LBNev2fS4FXDowpOiX5T-8" source="Nyn4XY5mQbgr6pFCzm3k-125" target="Nyn4XY5mQbgr6pFCzm3k-126" edge="1">
          <mxGeometry relative="1" as="geometry">
            <Array as="points">
              <mxPoint x="895" y="1116" />
              <mxPoint x="895" y="1015" />
            </Array>
          </mxGeometry>
        </mxCell>
      </root>
    </mxGraphModel>
  </diagram>
</mxfile>
